<svg xmlns="http://www.w3.org/2000/svg" viewBox="0 0 960 480" width="960" height="480">
<defs>
  <radialGradient id="bg" cx="50%" cy="50%" r="55%">
    <stop offset="0%" stop-color="#080f18"/><stop offset="100%" stop-color="#040810"/>
  </radialGradient>
  <radialGradient id="dojo-glow" cx="50%" cy="50%" r="50%">
    <stop offset="0%" stop-color="#4488ff" stop-opacity="0.5"/>
    <stop offset="100%" stop-color="#1133aa" stop-opacity="0"/>
  </radialGradient>
  <radialGradient id="dojo-glow-side" cx="50%" cy="0%" r="80%">
    <stop offset="0%" stop-color="#4488ff" stop-opacity="0.4"/>
    <stop offset="100%" stop-color="#0022aa" stop-opacity="0"/>
  </radialGradient>
  <filter id="glow"><feGaussianBlur stdDeviation="3.5" result="b"/><feComposite in="SourceGraphic" in2="b" operator="over"/></filter>
  <filter id="glow-hard"><feGaussianBlur stdDeviation="7" result="b"/><feComposite in="SourceGraphic" in2="b" operator="over"/></filter>
  <filter id="soft"><feGaussianBlur stdDeviation="1.5" result="b"/><feComposite in="SourceGraphic" in2="b" operator="over"/></filter>
  <clipPath id="left-panel"><rect x="0" y="0" width="480" height="480"/></clipPath>
  <clipPath id="right-panel"><rect x="480" y="0" width="480" height="480"/></clipPath>
</defs>
<rect width="960" height="480" fill="url(#bg)" rx="0"/>
<line x1="480" y1="20" x2="480" y2="460" stroke="#00D9D9" stroke-width="0.5" stroke-opacity="0.2" stroke-dasharray="3 6"/>
<text x="240" y="22" text-anchor="middle" font-size="8" fill="#00D9D9" fill-opacity="0.3" font-family="monospace" letter-spacing="4">PLAN  ↓</text>
<text x="720" y="22" text-anchor="middle" font-size="8" fill="#00D9D9" fill-opacity="0.3" font-family="monospace" letter-spacing="4">ELEVATION  →</text>
<g clip-path="url(#left-panel)">
<circle cx="240" cy="248" r="172.0" fill="none" stroke="#00D9D9" stroke-width="0.7" stroke-opacity="0.18" stroke-dasharray="4 7"/>
<g stroke="#00D9D9" stroke-width="0.3" stroke-opacity="0.07">
<line x1="240.0" y1="248.0" x2="240.0" y2="173.0"/>
<line x1="240.0" y1="248.0" x2="305.0" y2="210.5"/>
<line x1="240.0" y1="248.0" x2="305.0" y2="285.5"/>
<line x1="240.0" y1="248.0" x2="240.0" y2="323.0"/>
<line x1="240.0" y1="248.0" x2="175.0" y2="285.5"/>
<line x1="240.0" y1="248.0" x2="175.0" y2="210.5"/>
<line x1="240.0" y1="248.0" x2="240.0" y2="98.0"/>
<line x1="240.0" y1="248.0" x2="369.9" y2="173.0"/>
<line x1="240.0" y1="248.0" x2="369.9" y2="323.0"/>
<line x1="240.0" y1="248.0" x2="240.0" y2="398.0"/>
<line x1="240.0" y1="248.0" x2="110.1" y2="323.0"/>
<line x1="240.0" y1="248.0" x2="110.1" y2="173.0"/>
<line x1="240.0" y1="173.0" x2="305.0" y2="210.5"/>
<line x1="240.0" y1="173.0" x2="305.0" y2="285.5"/>
<line x1="240.0" y1="173.0" x2="240.0" y2="323.0"/>
<line x1="240.0" y1="173.0" x2="175.0" y2="285.5"/>
<line x1="240.0" y1="173.0" x2="175.0" y2="210.5"/>
<line x1="240.0" y1="173.0" x2="240.0" y2="98.0"/>
<line x1="240.0" y1="173.0" x2="369.9" y2="173.0"/>
<line x1="240.0" y1="173.0" x2="369.9" y2="323.0"/>
<line x1="240.0" y1="173.0" x2="240.0" y2="398.0"/>
<line x1="240.0" y1="173.0" x2="110.1" y2="323.0"/>
<line x1="240.0" y1="173.0" x2="110.1" y2="173.0"/>
<line x1="305.0" y1="210.5" x2="305.0" y2="285.5"/>
<line x1="305.0" y1="210.5" x2="240.0" y2="323.0"/>
<line x1="305.0" y1="210.5" x2="175.0" y2="285.5"/>
<line x1="305.0" y1="210.5" x2="175.0" y2="210.5"/>
<line x1="305.0" y1="210.5" x2="240.0" y2="98.0"/>
<line x1="305.0" y1="210.5" x2="369.9" y2="173.0"/>
<line x1="305.0" y1="210.5" x2="369.9" y2="323.0"/>
<line x1="305.0" y1="210.5" x2="240.0" y2="398.0"/>
<line x1="305.0" y1="210.5" x2="110.1" y2="323.0"/>
<line x1="305.0" y1="210.5" x2="110.1" y2="173.0"/>
<line x1="305.0" y1="285.5" x2="240.0" y2="323.0"/>
<line x1="305.0" y1="285.5" x2="175.0" y2="285.5"/>
<line x1="305.0" y1="285.5" x2="175.0" y2="210.5"/>
<line x1="305.0" y1="285.5" x2="240.0" y2="98.0"/>
<line x1="305.0" y1="285.5" x2="369.9" y2="173.0"/>
<line x1="305.0" y1="285.5" x2="369.9" y2="323.0"/>
<line x1="305.0" y1="285.5" x2="240.0" y2="398.0"/>
<line x1="305.0" y1="285.5" x2="110.1" y2="323.0"/>
<line x1="305.0" y1="285.5" x2="110.1" y2="173.0"/>
<line x1="240.0" y1="323.0" x2="175.0" y2="285.5"/>
<line x1="240.0" y1="323.0" x2="175.0" y2="210.5"/>
<line x1="240.0" y1="323.0" x2="240.0" y2="98.0"/>
<line x1="240.0" y1="323.0" x2="369.9" y2="173.0"/>
<line x1="240.0" y1="323.0" x2="369.9" y2="323.0"/>
<line x1="240.0" y1="323.0" x2="240.0" y2="398.0"/>
<line x1="240.0" y1="323.0" x2="110.1" y2="323.0"/>
<line x1="240.0" y1="323.0" x2="110.1" y2="173.0"/>
<line x1="175.0" y1="285.5" x2="175.0" y2="210.5"/>
<line x1="175.0" y1="285.5" x2="240.0" y2="98.0"/>
<line x1="175.0" y1="285.5" x2="369.9" y2="173.0"/>
<line x1="175.0" y1="285.5" x2="369.9" y2="323.0"/>
<line x1="175.0" y1="285.5" x2="240.0" y2="398.0"/>
<line x1="175.0" y1="285.5" x2="110.1" y2="323.0"/>
<line x1="175.0" y1="285.5" x2="110.1" y2="173.0"/>
<line x1="175.0" y1="210.5" x2="240.0" y2="98.0"/>
<line x1="175.0" y1="210.5" x2="369.9" y2="173.0"/>
<line x1="175.0" y1="210.5" x2="369.9" y2="323.0"/>
<line x1="175.0" y1="210.5" x2="240.0" y2="398.0"/>
<line x1="175.0" y1="210.5" x2="110.1" y2="323.0"/>
<line x1="175.0" y1="210.5" x2="110.1" y2="173.0"/>
<line x1="240.0" y1="98.0" x2="369.9" y2="173.0"/>
<line x1="240.0" y1="98.0" x2="369.9" y2="323.0"/>
<line x1="240.0" y1="98.0" x2="240.0" y2="398.0"/>
<line x1="240.0" y1="98.0" x2="110.1" y2="323.0"/>
<line x1="240.0" y1="98.0" x2="110.1" y2="173.0"/>
<line x1="369.9" y1="173.0" x2="369.9" y2="323.0"/>
<line x1="369.9" y1="173.0" x2="240.0" y2="398.0"/>
<line x1="369.9" y1="173.0" x2="110.1" y2="323.0"/>
<line x1="369.9" y1="173.0" x2="110.1" y2="173.0"/>
<line x1="369.9" y1="323.0" x2="240.0" y2="398.0"/>
<line x1="369.9" y1="323.0" x2="110.1" y2="323.0"/>
<line x1="369.9" y1="323.0" x2="110.1" y2="173.0"/>
<line x1="240.0" y1="398.0" x2="110.1" y2="323.0"/>
<line x1="240.0" y1="398.0" x2="110.1" y2="173.0"/>
<line x1="110.1" y1="323.0" x2="110.1" y2="173.0"/>
</g>
<g fill="none" stroke="#00D9D9" stroke-width="0.4" stroke-opacity="0.12">
<circle cx="240.0" cy="248.0" r="75.0"/>
<circle cx="240.0" cy="173.0" r="75.0"/>
<circle cx="305.0" cy="210.5" r="75.0"/>
<circle cx="305.0" cy="285.5" r="75.0"/>
<circle cx="240.0" cy="323.0" r="75.0"/>
<circle cx="175.0" cy="285.5" r="75.0"/>
<circle cx="175.0" cy="210.5" r="75.0"/>
<circle cx="240.0" cy="98.0" r="75.0"/>
<circle cx="369.9" cy="173.0" r="75.0"/>
<circle cx="369.9" cy="323.0" r="75.0"/>
<circle cx="240.0" cy="398.0" r="75.0"/>
<circle cx="110.1" cy="323.0" r="75.0"/>
<circle cx="110.1" cy="173.0" r="75.0"/>
</g>
<line x1="240.0" y1="173.0" x2="240.0" y2="248.0" stroke="#aa88ff" stroke-width="4" stroke-opacity="0.14" stroke-linecap="round" filter="url(#glow)"/>
<line x1="240.0" y1="173.0" x2="240.0" y2="248.0" stroke="#aa88ff" stroke-width="1.2" stroke-opacity="0.7" stroke-linecap="round"/>
<line x1="305.0" y1="210.5" x2="240.0" y2="248.0" stroke="#ffe055" stroke-width="4" stroke-opacity="0.14" stroke-linecap="round" filter="url(#glow)"/>
<line x1="305.0" y1="210.5" x2="240.0" y2="248.0" stroke="#ffe055" stroke-width="1.2" stroke-opacity="0.7" stroke-linecap="round"/>
<line x1="240.0" y1="323.0" x2="240.0" y2="248.0" stroke="#ffaa44" stroke-width="4" stroke-opacity="0.14" stroke-linecap="round" filter="url(#glow)"/>
<line x1="240.0" y1="323.0" x2="240.0" y2="248.0" stroke="#ffaa44" stroke-width="1.2" stroke-opacity="0.7" stroke-linecap="round"/>
<line x1="175.0" y1="285.5" x2="240.0" y2="248.0" stroke="#cc88ff" stroke-width="0.8" stroke-opacity="0.3" stroke-dasharray="3 4"/>
<ellipse cx="175.0" cy="285.5" rx="26" ry="9" fill="none" stroke="#cc88ff" stroke-width="0.8" stroke-opacity="0.4" transform="rotate(25 175.0 285.5)"/>
<circle cx="240" cy="248" r="66" fill="url(#dojo-glow)"/>
<circle cx="240" cy="248" r="36" fill="none" stroke="#4488ff" stroke-width="2" stroke-opacity="0.75" filter="url(#glow)"/>
<circle cx="240" cy="248" r="36" fill="#1133aa" fill-opacity="0.10"/>
<text x="240" y="258" text-anchor="middle" font-size="24" fill="#88aaff" fill-opacity="0.95" font-family="serif" filter="url(#glow-hard)">◼</text>
<text x="240" y="272" text-anchor="middle" font-size="7" fill="#4488ff" fill-opacity="0.5" font-family="monospace" letter-spacing="2">741</text>
<text x="240" y="224" text-anchor="middle" font-size="7.5" fill="#88aaff" fill-opacity="0.28" font-family="Georgia,serif">e&#x2071;&#x03C0;+1=0</text>
<circle cx="240.0" cy="173.0" r="22" fill="#aa88ff" fill-opacity="0.07"/>
<circle cx="240.0" cy="173.0" r="22" fill="none" stroke="#aa88ff" stroke-width="1.3" stroke-opacity="0.65"/>
<text x="240.0" y="182.0" text-anchor="middle" font-size="18" fill="#aa88ff" fill-opacity="0.9" font-family="serif" >●</text>
<text x="240.0" y="138.0" text-anchor="middle" font-size="6.5" fill="#aa88ff" fill-opacity="0.55" font-family="monospace">963</text>
<circle cx="305.0" cy="210.5" r="22" fill="#ffe055" fill-opacity="0.07"/>
<circle cx="305.0" cy="210.5" r="22" fill="none" stroke="#ffe055" stroke-width="1.3" stroke-opacity="0.65"/>
<text x="305.0" y="219.5" text-anchor="middle" font-size="18" fill="#ffe055" fill-opacity="0.9" font-family="serif" >▲</text>
<text x="336.1" y="193.0" text-anchor="middle" font-size="6.5" fill="#ffe055" fill-opacity="0.55" font-family="monospace">528</text>
<circle cx="305.0" cy="285.5" r="18" fill="#dd4444" fill-opacity="0.07"/>
<circle cx="305.0" cy="285.5" r="18" fill="none" stroke="#dd4444" stroke-width="0.7" stroke-opacity="0.4"/>
<text x="305.0" y="294.5" text-anchor="middle" font-size="15" fill="#dd4444" fill-opacity="0.9" font-family="serif" >♦</text>
<text x="332.7" y="301.0" text-anchor="middle" font-size="6.5" fill="#dd4444" fill-opacity="0.32" font-family="monospace">396</text>
<circle cx="240.0" cy="323.0" r="22" fill="#ffaa44" fill-opacity="0.07"/>
<circle cx="240.0" cy="323.0" r="22" fill="none" stroke="#ffaa44" stroke-width="1.3" stroke-opacity="0.65"/>
<text x="240.0" y="332.0" text-anchor="middle" font-size="18" fill="#ffaa44" fill-opacity="0.9" font-family="serif" >▼</text>
<text x="240.0" y="358.0" text-anchor="middle" font-size="6.5" fill="#ffaa44" fill-opacity="0.55" font-family="monospace">432</text>
<circle cx="175.0" cy="285.5" r="18" fill="#cc88ff" fill-opacity="0.07"/>
<circle cx="175.0" cy="285.5" r="18" fill="none" stroke="#cc88ff" stroke-width="0.7" stroke-opacity="0.4"/>
<text x="175.0" y="294.5" text-anchor="middle" font-size="15" fill="#cc88ff" fill-opacity="0.9" font-family="serif" transform="rotate(-15 175.0 285.5)">◉</text>
<text x="147.3" y="301.0" text-anchor="middle" font-size="6.5" fill="#cc88ff" fill-opacity="0.32" font-family="monospace">717</text>
</g>
<g clip-path="url(#right-panel)">
<ellipse cx="720" cy="236" rx="155" ry="202" fill="none" stroke="#00D9D9" stroke-width="0.7" stroke-opacity="0.15" stroke-dasharray="4 7"/>
<path d="M 720,63 C 690,123 605,198 605,238 C 605,268 702,388 720,408" fill="none" stroke="#00D9D9" stroke-width="0.8" stroke-opacity="0.25"/>
<path d="M 720,63 C 750,123 835,198 835,238 C 835,268 738,388 720,408" fill="none" stroke="#00D9D9" stroke-width="0.8" stroke-opacity="0.25"/>
<ellipse cx="720" cy="238" rx="115" ry="22" fill="none" stroke="#00D9D9" stroke-width="0.9" stroke-opacity="0.3"/>
<path d="M 720,63 C 690,123 605,198 605,238 C 605,268 702,388 720,408 C 738,388 835,268 835,238 C 835,198 750,123 720,63 Z" fill="#00D9D9" fill-opacity="0.02"/>
<line x1="720" y1="45" x2="720" y2="426" stroke="#00D9D9" stroke-width="0.6" stroke-opacity="0.2" stroke-dasharray="3 5"/>
<text x="728" y="268" font-size="6.5" fill="#00D9D9" fill-opacity="0.35" font-family="monospace">⊗ 852</text>
<text x="728" y="279" font-size="7" fill="#88aaff" fill-opacity="0.2" font-family="Georgia,serif">e&#x2071;&#x03C0;+1=0</text>
<ellipse cx="720" cy="238" rx="129" ry="30" fill="none" stroke="#cc88ff" stroke-width="1.2" stroke-opacity="0.5" stroke-dasharray="5 4" transform="rotate(35 720 238)" filter="url(#soft)"/>
<text x="815.1" y="187.8" text-anchor="middle" font-size="15" fill="#cc88ff" fill-opacity="0.8" font-family="serif">◉</text>
<text x="817.1" y="199.8" text-anchor="middle" font-size="6" fill="#cc88ff" fill-opacity="0.45" font-family="monospace">717</text>
<ellipse cx="720" cy="238" rx="121" ry="27" fill="none" stroke="#cc88ff" stroke-width="0.5" stroke-opacity="0.25" transform="rotate(125 720 238)"/>
<circle cx="720" cy="63" r="55" fill="url(#dojo-glow-side)"/>
<circle cx="720" cy="63" r="28" fill="none" stroke="#4488ff" stroke-width="2" stroke-opacity="0.8" filter="url(#glow)"/>
<circle cx="720" cy="63" r="28" fill="#1133aa" fill-opacity="0.12"/>
<text x="720" y="72" text-anchor="middle" font-size="22" fill="#88aaff" fill-opacity="0.95" font-family="serif" filter="url(#glow-hard)">◼</text>
<text x="720" y="29" text-anchor="middle" font-size="7" fill="#4488ff" fill-opacity="0.4" font-family="monospace" letter-spacing="2">741</text>
<line x1="603.0" y1="238.0" x2="720.0" y2="238.0" stroke="#aa88ff" stroke-width="4" stroke-opacity="0.12" stroke-linecap="round" filter="url(#glow)"/>
<line x1="603.0" y1="238.0" x2="720.0" y2="238.0" stroke="#aa88ff" stroke-width="1.1" stroke-opacity="0.6" stroke-linecap="round"/>
<circle cx="603.0" cy="238.0" r="20" fill="#aa88ff" fill-opacity="0.07"/>
<circle cx="603.0" cy="238.0" r="20" fill="none" stroke="#aa88ff" stroke-width="1.3" stroke-opacity="0.65"/>
<text x="603.0" y="246.0" text-anchor="middle" font-size="17" fill="#aa88ff" fill-opacity="0.9" font-family="serif">●</text>
<text x="575.0" y="238.0" text-anchor="middle" font-size="6.5" fill="#aa88ff" fill-opacity="0.5" font-family="monospace">963</text>
<line x1="837.0" y1="238.0" x2="720.0" y2="238.0" stroke="#ffe055" stroke-width="4" stroke-opacity="0.12" stroke-linecap="round" filter="url(#glow)"/>
<line x1="837.0" y1="238.0" x2="720.0" y2="238.0" stroke="#ffe055" stroke-width="1.1" stroke-opacity="0.6" stroke-linecap="round"/>
<circle cx="837.0" cy="238.0" r="20" fill="#ffe055" fill-opacity="0.07"/>
<circle cx="837.0" cy="238.0" r="20" fill="none" stroke="#ffe055" stroke-width="1.3" stroke-opacity="0.65"/>
<text x="837.0" y="246.0" text-anchor="middle" font-size="17" fill="#ffe055" fill-opacity="0.9" font-family="serif">▲</text>
<text x="865.0" y="238.0" text-anchor="middle" font-size="6.5" fill="#ffe055" fill-opacity="0.5" font-family="monospace">528</text>
<line x1="720.0" y1="293.0" x2="720.0" y2="238.0" stroke="#ffaa44" stroke-width="4" stroke-opacity="0.12" stroke-linecap="round" filter="url(#glow)"/>
<line x1="720.0" y1="293.0" x2="720.0" y2="238.0" stroke="#ffaa44" stroke-width="1.1" stroke-opacity="0.6" stroke-linecap="round"/>
<circle cx="720.0" cy="293.0" r="20" fill="#ffaa44" fill-opacity="0.07"/>
<circle cx="720.0" cy="293.0" r="20" fill="none" stroke="#ffaa44" stroke-width="1.3" stroke-opacity="0.65"/>
<text x="720.0" y="301.0" text-anchor="middle" font-size="17" fill="#ffaa44" fill-opacity="0.9" font-family="serif">▼</text>
<text x="720.0" y="307.0" text-anchor="middle" font-size="6.5" fill="#ffaa44" fill-opacity="0.5" font-family="monospace">432</text>
<line x1="720" y1="238" x2="720" y2="91" stroke="#4488ff" stroke-width="4" stroke-opacity="0.12" stroke-linecap="round" filter="url(#glow)"/>
<line x1="720" y1="238" x2="720" y2="91" stroke="#88aaff" stroke-width="1.4" stroke-opacity="0.7" stroke-linecap="round"/>
<circle cx="720" cy="408" r="18" fill="#cc0000" fill-opacity="0.07"/>
<circle cx="720" cy="408" r="18" fill="none" stroke="#dd4444" stroke-width="0.8" stroke-opacity="0.45"/>
<text x="720" y="415" text-anchor="middle" font-size="15" fill="#dd4444" fill-opacity="0.8" font-family="serif">♦</text>
<text x="746" y="412" text-anchor="middle" font-size="6.5" fill="#dd4444" fill-opacity="0.4" font-family="monospace">396</text>
<line x1="720" y1="390" x2="720" y2="260" stroke="#dd4444" stroke-width="0.7" stroke-opacity="0.3" stroke-dasharray="3 4" stroke-linecap="round"/>
</g>
<text x="480" y="472" text-anchor="middle" font-size="9" fill="#00D9D9" fill-opacity="0.28" font-family="-apple-system,sans-serif" font-weight="200" letter-spacing="9">FIELD</text>
</svg>